<svg width="20" height="20" viewBox="0 0 20 20" fill="none" xmlns="http://www.w3.org/2000/svg">
<path d="M11.3565 13.0815C11.317 13.0025 11.2775 12.9103 11.2511 12.805C11.2248 12.6996 11.1985 12.5943 11.1853 12.4758C11.0931 12.5811 10.9878 12.6733 10.8692 12.7655C10.7507 12.8577 10.619 12.9367 10.4742 13.0025C10.3293 13.0684 10.1713 13.121 9.98696 13.1605C9.81576 13.2001 9.61824 13.2132 9.40754 13.2132C9.07833 13.2132 8.76228 13.1605 8.48574 13.0684C8.2092 12.9762 7.97217 12.8313 7.76147 12.6601C7.56394 12.4889 7.40592 12.2783 7.2874 12.0412C7.16889 11.8042 7.11621 11.5408 7.11621 11.2643C7.11621 10.5795 7.36641 10.0396 7.87999 9.67088C8.39356 9.28899 9.15734 9.10463 10.1713 9.10463H11.1063V8.72274C11.1063 8.4067 11.0009 8.15649 10.8034 7.97213C10.5927 7.78777 10.303 7.69559 9.92111 7.69559C9.57873 7.69559 9.32853 7.7746 9.17051 7.91946C9.01248 8.06431 8.93347 8.26184 8.93347 8.51204H7.26106C7.26106 8.2355 7.32691 7.97213 7.44542 7.72193C7.56394 7.47173 7.7483 7.24786 7.98534 7.0635C8.22237 6.87914 8.51208 6.72112 8.85446 6.61577C9.19684 6.51042 9.57873 6.44458 10.0265 6.44458C10.4215 6.44458 10.7902 6.49725 11.1326 6.58943C11.475 6.68161 11.7647 6.82647 12.0149 7.024C12.2651 7.20836 12.4626 7.44539 12.5943 7.7351C12.7392 8.02481 12.805 8.35402 12.805 8.73591V11.5408C12.805 11.8964 12.8314 12.1861 12.8709 12.4099C12.9104 12.6338 12.9762 12.8313 13.0684 13.0025V13.1079H11.3565V13.0815ZM9.76309 11.9095C9.93428 11.9095 10.0923 11.8832 10.2372 11.8437C10.382 11.8042 10.5137 11.7515 10.6322 11.6857C10.7507 11.6198 10.8429 11.554 10.9351 11.4618C11.0141 11.3828 11.0799 11.2906 11.1326 11.2116V10.0923H10.2767C10.0133 10.0923 9.78943 10.1186 9.60507 10.1713C9.42071 10.224 9.26269 10.2898 9.15734 10.382C9.03882 10.4742 8.95981 10.5795 8.89397 10.7112C8.84129 10.8429 8.81495 10.9746 8.81495 11.1194C8.81495 11.3433 8.89397 11.5276 9.05199 11.6857C9.19684 11.8305 9.43388 11.9095 9.76309 11.9095Z" fill="#D4D4D8"/>
<path fill-rule="evenodd" clip-rule="evenodd" d="M10 2.65625C5.94416 2.65625 2.65625 5.94416 2.65625 10C2.65625 14.0558 5.94416 17.3438 10 17.3438C14.0558 17.3438 17.3438 14.0558 17.3438 10C17.3438 5.94416 14.0558 2.65625 10 2.65625ZM1.09375 10C1.09375 5.08121 5.08121 1.09375 10 1.09375C14.9188 1.09375 18.9062 5.08121 18.9062 10C18.9062 14.9188 14.9188 18.9062 10 18.9062C5.08121 18.9062 1.09375 14.9188 1.09375 10Z" fill="#D4D4D8"/>
</svg>
